<?xml version="1.0" encoding="UTF-8" standalone="no"?>
<!-- Created with Inkscape (http://www.inkscape.org/) -->

<svg
   xmlns:osb="http://www.openswatchbook.org/uri/2009/osb"
   xmlns:dc="http://purl.org/dc/elements/1.1/"
   xmlns:cc="http://creativecommons.org/ns#"
   xmlns:rdf="http://www.w3.org/1999/02/22-rdf-syntax-ns#"
   xmlns:svg="http://www.w3.org/2000/svg"
   xmlns="http://www.w3.org/2000/svg"
   xmlns:sodipodi="http://sodipodi.sourceforge.net/DTD/sodipodi-0.dtd"
   xmlns:inkscape="http://www.inkscape.org/namespaces/inkscape"
   inkscape:export-ydpi="90"
   inkscape:export-xdpi="90"
   inkscape:export-filename="C:\Users\User\Desktop\LABPro\_blogs_\NuMecánica\Media\fav_icon_blog_16x16.png"
   sodipodi:docname="fav_icon_blog_16x16.svg"
   inkscape:version="0.48.5 r10040"
   version="1.1"
   id="svg2"
   height="16"
   width="16">
  <sodipodi:namedview
     id="base"
     pagecolor="#ffffff"
     bordercolor="#666666"
     borderopacity="1.0"
     inkscape:pageopacity="0.0"
     inkscape:pageshadow="2"
     inkscape:zoom="1.3450757"
     inkscape:cx="8.2866302"
     inkscape:cy="7.5750683"
     inkscape:document-units="px"
     inkscape:current-layer="svg2"
     showgrid="false"
     inkscape:window-width="1366"
     inkscape:window-height="705"
     inkscape:window-x="-4"
     inkscape:window-y="-4"
     inkscape:window-maximized="1"
     showguides="true"
     inkscape:guide-bbox="true" />
  <defs
     id="defs4">
    <linearGradient
       id="linearGradient6695"
       osb:paint="solid">
      <stop
         style="stop-color:#8e0000;stop-opacity:1;"
         offset="0"
         id="stop6697" />
    </linearGradient>
    <inkscape:path-effect
       effect="gears"
       id="path-effect5251"
       is_visible="true"
       teeth="18"
       phi="20" />
    <inkscape:path-effect
       effect="gears"
       id="path-effect5239"
       is_visible="true"
       teeth="28"
       phi="5" />
    <inkscape:path-effect
       effect="gears"
       id="path-effect5227"
       is_visible="true"
       teeth="28"
       phi="5" />
  </defs>
  <metadata
     id="metadata7">
    <rdf:RDF>
      <cc:Work
         rdf:about="">
        <dc:format>image/svg+xml</dc:format>
        <dc:type
           rdf:resource="http://purl.org/dc/dcmitype/StillImage" />
        <dc:title></dc:title>
      </cc:Work>
    </rdf:RDF>
  </metadata>
  <g
     inkscape:label="Layer 1"
     inkscape:groupmode="layer"
     id="layer1"
     transform="translate(0,-1036.3622)">
    <g
       inkscape:label="Gear7"
       transform="translate(10.956916,8.5145899)"
       id="g3837">
      <path
         style="stroke:#000000;fill:none"
         d="M15.462,-3.772L20.341,-4.963L21.723,-4.958L28.602,-1.622L28.602,1.622L21.723,4.958L20.341,4.963L15.462,3.772L12.590,9.737L16.563,12.809L17.421,13.892L19.102,21.350L16.564,23.373L9.668,20.075L8.802,18.998L6.691,14.441L0.237,15.914L0.312,20.936L0.000,22.282L-4.783,28.246L-7.946,27.524L-9.668,20.075L-9.365,18.727L-7.118,14.235L-12.294,10.107L-16.174,13.297L-17.421,13.892L-25.065,13.872L-26.473,10.948L-21.723,4.958L-20.480,4.354L-15.568,3.310L-15.568,-3.310L-20.480,-4.354L-21.723,-4.958L-26.473,-10.948L-25.065,-13.872L-17.421,-13.892L-16.174,-13.297L-12.294,-10.107L-7.118,-14.235L-9.365,-18.727L-9.668,-20.075L-7.946,-27.524L-4.783,-28.246L-0.000,-22.282L0.312,-20.936L0.237,-15.914L6.691,-14.441L8.802,-18.998L9.668,-20.075L16.564,-23.373L19.102,-21.350L17.421,-13.892L16.563,-12.809L12.590,-9.737z"
         id="path3839" />
    </g>
    <g
       id="g3859"
       transform="translate(10.956916,8.5145899)"
       inkscape:label="Gear7">
      <path
         id="path3861"
         d="M15.462,-3.772L20.341,-4.963L21.723,-4.958L28.602,-1.622L28.602,1.622L21.723,4.958L20.341,4.963L15.462,3.772L12.590,9.737L16.563,12.809L17.421,13.892L19.102,21.350L16.564,23.373L9.668,20.075L8.802,18.998L6.691,14.441L0.237,15.914L0.312,20.936L0.000,22.282L-4.783,28.246L-7.946,27.524L-9.668,20.075L-9.365,18.727L-7.118,14.235L-12.294,10.107L-16.174,13.297L-17.421,13.892L-25.065,13.872L-26.473,10.948L-21.723,4.958L-20.480,4.354L-15.568,3.310L-15.568,-3.310L-20.480,-4.354L-21.723,-4.958L-26.473,-10.948L-25.065,-13.872L-17.421,-13.892L-16.174,-13.297L-12.294,-10.107L-7.118,-14.235L-9.365,-18.727L-9.668,-20.075L-7.946,-27.524L-4.783,-28.246L-0.000,-22.282L0.312,-20.936L0.237,-15.914L6.691,-14.441L8.802,-18.998L9.668,-20.075L16.564,-23.373L19.102,-21.350L17.421,-13.892L16.563,-12.809L12.590,-9.737z"
         style="stroke:#000000;fill:none" />
    </g>
  </g>
  <path
     style="fill:#000080;stroke:none;stroke-width:0.32591149000000003px;stroke-linecap:butt;stroke-linejoin:miter;stroke-opacity:1;fill-opacity:1"
     d="m 1.9520323,11.151648 c 0,0 -0.2497885,0.142608 -0.7740659,0.09929 -0.049224,-0.09445 -0.095227,-0.190574 -0.1379027,-0.288155 0.2951441,-0.435469 0.5628958,-0.540542 0.5628958,-0.540542 l 0.2017486,-0.07232 C 1.7436677,10.179637 1.6949716,10.004926 1.6591282,9.8276162 l -0.2100691,0.042466 c 0,0 -0.2834991,0.048574 -0.76134331,-0.171444 C 0.67376385,9.5930507 0.66341207,9.4869877 0.65668446,9.3806953 1.0829683,9.0724336 1.3705095,9.0652743 1.3705095,9.0652743 l 0.2143158,0.00105 c 8.826e-4,-0.1808947 0.014878,-0.3617241 0.04184,-0.5406005 L 1.4147404,8.4937763 c 0,0 -0.2830154,-0.051317 -0.65679136,-0.4214994 C 0.78095148,7.9682855 0.80749965,7.8650784 0.8375319,7.7628953 1.3435394,7.6190216 1.6161884,7.710639 1.6161884,7.710639 l 0.2010334,0.074283 C 1.8799207,7.6152383 1.9549192,7.4501008 2.0414344,7.2912336 L 1.8532157,7.1887343 c 0,0 -0.248396,-0.1450194 -0.4730208,-0.6207157 C 1.4373773,6.478166 1.4976233,6.390263 1.5607931,6.3045139 2.0854923,6.3423817 2.3103635,6.5217253 2.3103635,6.5217253 L 2.4738669,6.6602858 C 2.5908199,6.5222797 2.7177757,6.3927523 2.8534092,6.2730558 L 2.7115982,6.1123635 c 0,0 -0.1838162,-0.2212302 -0.2321968,-0.7450646 0.084465,-0.064876 0.1711427,-0.1268728 0.2598308,-0.1858453 0.4801044,0.2150418 0.6300751,0.4604802 0.6300751,0.4604802 L 3.4755597,5.8280595 C 3.6326604,5.7383764 3.7962609,5.6600819 3.9646532,5.5939934 L 3.8863546,5.3944898 c 0,0 -0.097066,-0.2707572 0.036633,-0.7795477 0.1015605,-0.032075 0.2042145,-0.060687 0.3077238,-0.08577 0.377602,0.3662786 0.4345835,0.6482081 0.4345835,0.6482081 l 0.036186,0.2112415 c 0.1782998,-0.030543 0.3588122,-0.048161 0.5396529,-0.05267 l -0.00534,-0.2142517 c 0,0 0.00139,-0.287627 0.3010452,-0.7200059 0.1064059,0.0046 0.2126551,0.012818 0.3185008,0.02465 0.2295552,0.4733368 0.1866747,0.7577527 0.1866747,0.7577527 l -0.038245,0.2108784 c 0.1779933,0.032281 0.3536453,0.077464 0.5251222,0.1350782 l 0.068258,-0.2031581 c 0,0 0.099683,-0.2698046 0.5291465,-0.5736206 0.098417,0.040711 0.1954463,0.084777 0.290862,0.1320974 0.053821,0.5233035 -0.08375,0.7759011 -0.08375,0.7759011 L 7.2253427,5.8463533 c 0.1562181,0.091212 0.3058234,0.1937466 0.4472539,0.3065344 L 7.8062225,5.9853272 c 0,0 0.1859497,-0.2194399 0.6934248,-0.3580483 0.078558,0.071916 0.1546639,0.1465114 0.2281409,0.2236116 C 8.5993827,6.3610427 8.3837153,6.5513549 8.3837153,6.5513549 L 8.2188677,6.6883135 c 0.1156009,0.1391407 0.2211148,0.28666 0.3154403,0.441018 L 8.7171843,7.0175789 c 0,0 0.2497885,-0.1426075 0.7740659,-0.09929 0.049224,0.094448 0.095227,0.1905738 0.1379027,0.288155 C 9.3340088,7.6419127 9.0662571,7.7469851 9.0662571,7.7469851 l -0.2017486,0.072318 c 0.06104,0.1702873 0.1097365,0.344998 0.1455799,0.5223083 l 0.2100691,-0.042466 c 0,0 0.2834991,-0.048574 0.7613433,0.171444 0.013952,0.1055872 0.024304,0.2116502 0.031031,0.3179426 -0.4262837,0.3082617 -0.7138249,0.315421 -0.7138249,0.315421 l -0.2143158,-0.00105 c -8.826e-4,0.1808947 -0.014878,0.3617241 -0.04184,0.5406005 l 0.2119245,0.031943 c 0,0 0.2830154,0.051317 0.6567914,0.4214989 -0.023003,0.103992 -0.049551,0.207199 -0.079583,0.309382 -0.5060075,0.143874 -0.7786565,0.05226 -0.7786565,0.05226 l -0.2010334,-0.07428 c -0.062699,0.169683 -0.1376974,0.334821 -0.2242126,0.493688 l 0.1882187,0.102499 c 0,0 0.248396,0.145019 0.4730208,0.620716 -0.057182,0.08985 -0.1174284,0.177755 -0.1805982,0.263504 -0.5246992,-0.03787 -0.7495704,-0.217211 -0.7495704,-0.217211 l -0.1635034,-0.13856 c -0.116953,0.138006 -0.2439088,0.267533 -0.3795423,0.38723 l 0.141811,0.160692 c 0,0 0.1838162,0.22123 0.2321968,0.745065 -0.084465,0.06488 -0.1711427,0.126872 -0.2598308,0.185845 C 7.44988,12.772732 7.2999093,12.527294 7.2999093,12.527294 L 7.1936569,12.341168 c -0.1571007,0.08968 -0.3207012,0.167977 -0.4890935,0.234066 l 0.078299,0.199504 c 0,0 0.097066,0.270757 -0.036633,0.779547 -0.1015605,0.03208 -0.2042145,0.06069 -0.3077238,0.08577 -0.377602,-0.366278 -0.4345835,-0.648208 -0.4345835,-0.648208 l -0.036186,-0.211241 c -0.1782998,0.03054 -0.3588122,0.04816 -0.5396529,0.05267 l 0.00534,0.214252 c 0,0 -0.00139,0.287627 -0.3010452,0.720006 -0.1064059,-0.0046 -0.2126551,-0.01282 -0.3185008,-0.02465 C 4.5843237,13.269547 4.6272042,12.985131 4.6272042,12.985131 l 0.038245,-0.210879 C 4.4874562,12.741971 4.3118042,12.696788 4.1403273,12.639174 l -0.068258,0.203158 c 0,0 -0.099683,0.269805 -0.5291465,0.573621 -0.098417,-0.04071 -0.1954463,-0.08478 -0.290862,-0.132098 -0.053821,-0.523303 0.08375,-0.775901 0.08375,-0.775901 l 0.1080634,-0.18508 C 3.2876558,12.231662 3.1380505,12.129128 2.99662,12.01634 L 2.8629941,12.1839 c 0,0 -0.1859497,0.21944 -0.6934248,0.358048 -0.078558,-0.07192 -0.1546639,-0.146511 -0.2281409,-0.223611 0.1284055,-0.510152 0.3440729,-0.700465 0.3440729,-0.700465 L 2.4503489,11.480914 C 2.334748,11.341773 2.2292341,11.194254 2.1349086,11.039896 L 1.9520323,11.151648 M 13.656429,8.4520324 c 0,0 0.161834,0.2138509 0.141547,0.6903707 -0.08051,0.054119 -0.163426,0.104665 -0.248416,0.1514392 C 13.11669,9.0935755 13.000738,8.8517537 13.000738,8.8517537 l -0.11694,-0.2753159 c -0.16681,0.070853 -0.341868,0.1222664 -0.5205,0.1528686 l 0.05051,0.2948267 c 0,0 0.03323,0.2661176 -0.222602,0.668652 -0.09679,0.00661 -0.193864,0.00893 -0.290855,0.00694 C 11.625607,9.3098564 11.646101,9.0424566 11.646101,9.0424566 l 0.03638,-0.2969006 c -0.179888,-0.022045 -0.3572,-0.065049 -0.527201,-0.1278622 l -0.103672,0.2805814 c 0,0 -0.104283,0.2470784 -0.527105,0.4677688 -0.08712,-0.042666 -0.172355,-0.089199 -0.255358,-0.1394152 -0.043,-0.4750093 0.108449,-0.6963376 0.108449,-0.6963376 l 0.179961,-0.238931 C 10.412793,8.1823243 10.280739,8.0564266 10.164921,7.9170278 L 9.9348472,8.1081824 c 0,0 -0.2138509,0.1618347 -0.6903707,0.1415472 C 9.1903575,8.1692172 9.1398115,8.0863032 9.0930373,8.0013133 9.2933041,7.5684439 9.5351259,7.4524919 9.5351259,7.4524919 L 9.8104418,7.3355518 C 9.7395891,7.1687412 9.6881754,6.9936833 9.6575732,6.8150513 l -0.2948267,0.050508 c 0,0 -0.2661176,0.033227 -0.668652,-0.2226019 C 8.6874822,6.5461722 8.6851651,6.4490936 8.6871524,6.352103 9.0770232,6.0773606 9.344423,6.0978541 9.344423,6.0978541 l 0.2969006,0.036385 C 9.6633687,5.9543504 9.7063721,5.777039 9.7691858,5.607038 L 9.4886044,5.503366 c 0,0 -0.2470784,-0.104283 -0.4677688,-0.527105 0.042666,-0.087125 0.089199,-0.1723557 0.1394152,-0.2553584 0.4750093,-0.042998 0.6963376,0.1084494 0.6963376,0.1084494 l 0.2389306,0.1799604 c 0.109036,-0.1447655 0.234934,-0.27682 0.374333,-0.3926383 L 10.278697,4.3866008 c 0,0 -0.161834,-0.2138509 -0.141547,-0.6903707 0.08051,-0.054119 0.163426,-0.104665 0.248416,-0.1514392 0.43287,0.2002668 0.548822,0.4420886 0.548822,0.4420886 l 0.11694,0.2753159 c 0.16681,-0.070853 0.341868,-0.1222664 0.5205,-0.1528686 L 11.52132,3.8145001 c 0,0 -0.03323,-0.2661176 0.222602,-0.668652 0.09679,-0.00661 0.193864,-0.00893 0.290855,-0.00694 0.274742,0.3898708 0.254248,0.6572706 0.254248,0.6572706 l -0.03638,0.2969006 c 0.179888,0.022045 0.3572,0.065049 0.527201,0.1278622 L 12.883514,3.940358 c 0,0 0.104283,-0.2470784 0.527105,-0.4677688 0.08712,0.042666 0.172355,0.089199 0.255358,0.1394152 0.043,0.4750093 -0.108449,0.6963376 -0.108449,0.6963376 l -0.179961,0.238931 c 0.144766,0.1090359 0.27682,0.2349336 0.392638,0.3743324 l 0.230074,-0.1911546 c 0,0 0.213851,-0.1618347 0.69037,-0.1415472 0.05412,0.080512 0.104665,0.1634264 0.15144,0.2484163 C 14.641822,5.2701893 14.4,5.3861413 14.4,5.3861413 l -0.275316,0.1169401 c 0.07085,0.1668106 0.122267,0.3418685 0.152869,0.5205005 l 0.294826,-0.050508 c 0,0 0.266118,-0.033227 0.668653,0.2226019 0.0066,0.096785 0.0089,0.1938639 0.0069,0.2908545 -0.389871,0.2747424 -0.657271,0.2542489 -0.657271,0.2542489 l -0.296901,-0.036385 c -0.02205,0.1798885 -0.06505,0.3571999 -0.127862,0.5272009 l 0.280582,0.103672 c 0,0 0.247078,0.104283 0.467768,0.527105 -0.04267,0.087125 -0.0892,0.1723557 -0.139415,0.2553584 C 14.299866,8.160729 14.078538,8.0092812 14.078538,8.0092812 L 13.839607,7.8293208 c -0.109036,0.1447655 -0.234934,0.27682 -0.374333,0.3926383 l 0.191155,0.2300733"
     id="path5241"
     inkscape:connector-curvature="0"
     inkscape:original-d="M 1.0943633,11.113873 5.3346083,9.0846137 8.9085296,11.325886 11.967563,6.4193166"
     sodipodi:nodetypes="cccc"
     inkscape:path-effect="#path-effect5251" />
  <path
     sodipodi:type="arc"
     style="fill:#ffffff;fill-opacity:1;fill-rule:nonzero;stroke:none"
     id="path6725"
     sodipodi:cx="-6.1276951"
     sodipodi:cy="8.3609161"
     sodipodi:rx="2.3820798"
     sodipodi:ry="2.3820798"
     d="m -8.2145137,9.5096077 a 2.3820798,2.3820798 0 1 1 3.078e-4,5.59e-4"
     sodipodi:start="2.6384032"
     sodipodi:end="8.9213206"
     sodipodi:open="true"
     transform="matrix(1.0787882,0,0,1.0787882,11.886735,0.06691514)" />
  <path
     sodipodi:type="arc"
     style="fill:#ffffff;fill-opacity:1;fill-rule:nonzero;stroke:none"
     id="path6725-1"
     sodipodi:cx="-6.1276951"
     sodipodi:cy="8.3609161"
     sodipodi:rx="2.3820798"
     sodipodi:ry="2.3820798"
     d="m -8.2145137,9.5096077 a 2.3820798,2.3820798 0 1 1 3.078e-4,5.59e-4"
     sodipodi:start="2.6384032"
     sodipodi:end="8.9213206"
     sodipodi:open="true"
     transform="matrix(0.60007428,0,0,0.60007428,15.636756,1.3230851)" />
</svg>
